PathFileType	4	(X/Y/Z)	Run_500 01
DataRate	CameraRate	NumFrames	NumMarkers	Units	OrigDataRate	OrigDataStartFrame	OrigNumFrames
120	120	4	41	mm	120	2	128
Frame#	Time	RASI			LPSI			RPSI			RTH3			LTH1			LTH2			LTH3			RTB1			RTB2			RTB3			LTB1			LTB2			LTB3			RCAL			RTOE			RMT5			LCAL			LTOE			LMT5			LACR			RACR			CLAV			C7			RUA1			RUA2			RUA3			RLEL			LUA1			LUA2			LUA3			LLEL			LMEL			RFAsuperior			RFAradius			RFAulna			LFAsuperior			LFAradius			LFAulna			LASI			RTH1			RMEL			
		X1	Y1	Z1	X2	Y2	Z2	X3	Y3	Z3	X4	Y4	Z4	X5	Y5	Z5	X6	Y6	Z6	X7	Y7	Z7	X8	Y8	Z8	X9	Y9	Z9	X10	Y10	Z10	X11	Y11	Z11	X12	Y12	Z12	X13	Y13	Z13	X14	Y14	Z14	X15	Y15	Z15	X16	Y16	Z16	X17	Y17	Z17	X18	Y18	Z18	X19	Y19	Z19	X20	Y20	Z20	X21	Y21	Z21	X22	Y22	Z22	X23	Y23	Z23	X24	Y24	Z24	X25	Y25	Z25	X26	Y26	Z26	X27	Y27	Z27	X28	Y28	Z28	X29	Y29	Z29	X30	Y30	Z30	X31	Y31	Z31	X32	Y32	Z32	X33	Y33	Z33	X34	Y34	Z34	X35	Y35	Z35	X36	Y36	Z36	X37	Y37	Z37	X38	Y38	Z38	X39	Y39	Z39	X40	Y40	Z40	X41	Y41	Z41	

1	0.25	1037.827926	1005.374837	-206.048021	894.4202289999999	1053.319604	-378.075679	873.046525	1046.019081	-282.503581	1147.001533	625.178209	-212.253655	951.208151	819.511718	-492.802553	939.8789860000001	701.288604	-458.896821	819.202081	635.2958640000001	-453.187724	1275.309171	441.259382	-295.149725	1262.471404	372.794498	-231.278357	1286.822695	318.890342	-302.65425	655.064577	484.024102	-384.172436	577.716569	532.342501	-451.578886	483.180032	483.09413	-393.010966	1236.919218	115.681441	-306.283109	1424.499001	207.021127	-347.498284	1423.321074	176.035867	-256.110778	361.638833	578.436746	-392.663649	300.264368	383.512265	-355.277145	267.048008	399.743541	-438.105066	1068.510129	1469.824597	-490.512454	915.9699900000001	1474.715661	-137.384064	1040.934318	1460.289508	-268.446132	934.231178	1513.156391	-349.123437	800.65788	1390.369659	-113.02724	758.109976	1406.587264	-174.94272	724.869285	1344.817541	-109.848189	660.286971	1303.331797	-109.815374	1046.608714	1345.335186	-571.303089	984.102814	1302.991612	-599.331773	1055.548062	1262.026248	-600.183043	1018.907843	1187.022167	-633.372883	943.691405	1182.619738	-585.440965	704.701195	1182.730772	-87.15000499999999	743.714081	1065.989148	-119.286682	687.788831	1055.641931	-78.179834	1104.038241	1164.866129	-535.7832550000001	1126.234322	1187.070168	-410.203165	1161.972753	1138.231794	-446.010363	1058.172795	997.666281	-429.518032	1013.202403	846.124856	-144.608466	661.813742	1282.02818	-191.192735	
2	0.258333	1035.487164	1001.738757	-205.729462	894.043001	1048.164789	-379.873975	871.21659	1040.931864	-283.826036	1140.768458	617.877868	-212.694273	955.916382	813.824402	-493.789114	946.1570400000001	695.939432	-462.436966	828.075968	626.829278	-455.244275	1266.453778	431.798341	-296.133256	1252.130719	362.955109	-232.872214	1277.506639	309.596743	-304.560823	666.602457	480.60932	-388.117097	593.092584	536.0965650000001	-453.002253	495.511953	495.082752	-394.096943	1226.079147	106.027688	-311.604362	1414.701281	198.069659	-348.696458	1412.836637	164.66592	-258.058599	382.409403	599.988517	-389.446692	306.0506	408.531006	-362.083544	276.000837	431.119132	-444.307432	1067.992386	1465.300709	-490.768903	918.2371889999999	1469.996752	-136.190767	1041.85118	1455.750923	-268.484048	934.93172	1509.73553	-348.141097	803.534416	1384.049146	-111.155944	760.243636	1400.021968	-172.432656	728.511298	1337.136488	-106.997345	664.585915	1294.59959	-106.613419	1043.12528	1341.610262	-571.069421	979.899738	1299.574402	-597.604322	1050.586517	1257.266264	-598.90364	1012.930732	1182.569982	-632.3023439999999	938.072058	1179.440824	-583.216233	711.208712	1174.629194	-84.50407	752.344139	1058.971216	-117.062631	696.839008	1047.289799	-75.79475600000001	1099.082736	1157.410165	-536.3931229999999	1124.195553	1177.406689	-410.765237	1157.603668	1127.718141	-447.58299	1058.618416	994.260417	-428.799837	1008.606751	838.444068	-145.546793	665.898061	1273.306553	-188.002757	
3	0.266667	1032.798733	996.550271	-205.382035	893.490865	1041.873766	-381.840927	869.532656	1035.205354	-285.30332	1134.801157	610.478729	-213.74891	959.1844630000001	807.697305	-494.992358	952.271741	689.946788	-466.165174	837.510247	617.419491	-457.566883	1256.11824	420.715163	-296.428427	1238.535171	351.487688	-234.060153	1265.289914	298.568539	-306.03371	680.330223	476.509318	-391.874981	610.398198	538.079218	-454.975335	510.959542	505.540287	-394.810662	1209.720261	97.253677	-316.749624	1400.59103	185.422249	-349.525469	1397.195639	149.713055	-259.66492	406.416392	618.246819	-386.05358	316.175383	431.358419	-368.369466	290.116601	459.58471	-450.075627	1067.393112	1459.945432	-491.189962	920.741716	1464.149392	-134.687015	1042.818436	1450.419586	-268.459364	935.708807	1505.660755	-347.04144	806.8290479999999	1376.412737	-108.816642	762.147127	1392.282955	-168.918574	732.517663	1328.100238	-103.561032	669.378241	1284.557106	-102.58026	1039.482875	1336.888007	-570.845774	975.240905	1295.535328	-595.8792529999999	1044.959173	1251.642608	-597.319403	1006.108046	1177.541119	-631.1593800000001	931.717135	1175.699427	-580.750508	718.644267	1165.498624	-81.378522	762.101372	1051.14197	-114.767187	707.259514	1037.959124	-73.044782	1093.370963	1149.028074	-537.164113	1121.853123	1166.613356	-411.830068	1152.513107	1116.08078	-449.706705	1058.664558	990.181994	-428.228814	1004.352679	831.166743	-147.075601	670.084517	1263.486507	-183.99263	
4	0.275	1029.889165	990.242257	-205.001818	892.609794	1034.33134	-383.692692	867.982975	1028.754859	-286.90922	1128.011019	602.1034979999999	-215.407262	961.371132	800.963696	-496.404566	958.68278	683.313552	-469.962431	847.7755529999999	607.118136	-460.167848	1244.456761	408.138762	-296.534623	1222.279599	338.61454	-235.53847	1250.473339	285.912848	-307.557072	695.962662	471.899348	-395.381512	629.4132070000001	538.620097	-457.386212	529.130081	514.175269	-395.424149	1188.532048	91.26595	-321.60205	1382.846784	167.634303	-350.99995	1376.950185	131.026098	-261.611761	432.61251	633.317003	-382.931232	330.701693	451.45773	-374.069801	308.796197	484.333918	-455.299458	1066.521386	1453.860259	-491.795661	923.531603	1457.297179	-132.784807	1043.814909	1444.325083	-268.373346	936.475787	1500.855487	-345.784779	810.60347	1367.504277	-105.932578	763.93682	1383.410483	-164.383486	737.04916	1317.740981	-99.573891	674.781302	1273.327111	-97.73709599999999	1035.694244	1330.995068	-570.670513	970.161843	1290.823423	-594.280121	1038.674186	1245.093524	-595.521166	998.4835890000001	1171.944285	-629.971856	924.707253	1171.498775	-578.056886	727.0837780000001	1155.462224	-77.849125	772.98844	1042.57058	-112.541048	719.05452	1027.783499	-70.069631	1086.881377	1139.683298	-537.998057	1118.973474	1154.642051	-413.369479	1146.667686	1103.446404	-452.410865	1058.270001	985.398732	-428.002356	1000.647414	824.419892	-148.804883	674.493326	1252.734798	-179.244423	
